# xmcd
# 
# Track frame offsets:
#     150
#     19639
#     35310
#     53796
#     69435
#     87984
#     101112
#     117270
#     131146
#     147870
#     162149
#     178457
#     194125
#     209445
# 
# Disc length: 3080
# 
# Revision: 3
# Processed by: cddbd v1.5.2PL0 Copyright (c) Steve Scherf et al.
# Submitted via: fre:ac v1.1beta1pre5
# 
DISCID=d00c060e
DTITLE=Xavier Naidoo - Hin und Weg
DYEAR=2019
DGENRE=
TTITLE0=Alles meine Sinne
TTITLE1=Anmut ft. Klotz
TTITLE2=Aufgeregt
TTITLE3=Blut,Schweiss und Tränen
TTITLE4=Diese Eine
TTITLE5=Eine Nacht
TTITLE6=Gute Zeiten ft. Motrip
TTITLE7=Ich danke allen Menschen
TTITLE8=Ich packe meine Sachen
TTITLE9=Keine Meile
TTITLE10=Königin
TTITLE11=Licht und Farbe
TTITLE12=Mein Glück ist besiegelt
TTITLE13=Welt ft. Kontra K.
EXTD=
EXTT0=
EXTT1=
EXTT2=
EXTT3=
EXTT4=
EXTT5=
EXTT6=
EXTT7=
EXTT8=
EXTT9=
EXTT10=
EXTT11=
EXTT12=
EXTT13=
PLAYORDER=
